<svg width="314" height="65" viewBox="0 0 314 65" fill="none" xmlns="http://www.w3.org/2000/svg">
<path d="M79.8567 38.0345H76.6731V15.1162H79.8567V24.9394H83.4748V15.1162H86.7205V38.0415H83.4748V28.2114H79.8567V38.0345ZM91.3811 15.1162V32.8245C91.3811 33.6601 91.5301 34.2359 91.828 34.5588C92.132 34.8818 92.523 35.0433 93.0319 35.0433C93.5284 35.0433 93.9318 34.8818 94.2359 34.5588C94.5399 34.2359 94.6827 33.6531 94.6827 32.8245V15.1162H97.6926V32.5717C97.6926 34.4325 97.2892 35.8508 96.4886 36.8408C95.688 37.8309 94.5089 38.3294 92.9388 38.3294C91.3687 38.3294 90.1896 37.8309 89.389 36.8408C88.5885 35.8508 88.1851 34.4184 88.1851 32.5717V15.1162H91.3811ZM109.099 38.0345H105.884L105.332 33.8778H101.422L100.87 38.0345H97.947L101.193 15.1092H105.853L109.099 38.0345ZM101.838 30.7672H104.91L103.377 19.1677L101.838 30.7672ZM110.284 15.1162H113.468V34.7695H118.712V38.0485H110.291V15.1233L110.284 15.1162ZM119.606 15.1162H122.789V38.0415H119.606V15.1162ZM135.183 38.0345H131.968L131.416 33.8778H127.506L126.954 38.0345H124.031L127.276 15.1092H131.937L135.183 38.0345ZM127.922 30.7672H130.994L129.461 19.1677L127.922 30.7672ZM139.21 21.4286V38.0345H136.343V15.1162H140.34L143.61 28.8363V15.1162H146.446V38.0415H143.176L139.21 21.4286ZM159.212 31.3851L161.384 15.1022H165.809V38.0275H162.799V21.5831L160.596 38.0275H157.586L155.209 21.8148V38.0275H152.435V15.1022H156.86L159.206 31.3851H159.212ZM178.14 38.0345H174.925L174.373 33.8778H170.463L169.911 38.0345H166.988L170.234 15.1092H174.894L178.14 38.0345ZM170.879 30.7672H173.951L172.418 19.1677L170.879 30.7672ZM188.156 32.5788C188.156 34.4395 187.753 35.8578 186.952 36.8338C186.152 37.8168 184.973 38.3083 183.403 38.3083C181.839 38.3083 180.653 37.8098 179.853 36.8198C179.052 35.8297 178.649 34.3973 178.649 32.5507V20.6141C178.649 18.7534 179.052 17.335 179.853 16.345C180.653 15.355 181.833 14.8564 183.403 14.8564C184.967 14.8564 186.152 15.355 186.952 16.345C187.753 17.335 188.156 18.7604 188.156 20.6141V22.8399H185.147V20.3824C185.147 19.5538 184.998 18.9711 184.7 18.627C184.396 18.283 184.005 18.1215 183.496 18.1215C182.999 18.1215 182.596 18.29 182.292 18.627C181.988 18.9711 181.845 19.5538 181.845 20.3824V32.7824C181.845 33.6109 181.994 34.1937 182.292 34.5167C182.596 34.8397 182.987 35.0012 183.496 35.0012C183.992 35.0012 184.396 34.8397 184.7 34.5167C185.004 34.1937 185.147 33.6109 185.147 32.7824V29.5033H188.156V32.5788ZM192.705 38.0485H189.522V15.1233H192.705V24.9464H196.323V15.1233H199.569V38.0485H196.323V28.2184H192.705V38.0485ZM201.102 15.1233H204.286V38.0485H201.102V15.1233ZM208.692 21.4497V38.0556H205.825V15.1303H209.821L213.092 28.8503V15.1303H215.928V38.0556H212.657L208.692 21.4497ZM220.613 24.7849H224.989V28.0639H220.613V34.7765H226.112V38.0556H217.43V15.1303H226.112V18.4093H220.613V24.7919V24.7849ZM234.136 38.0556C234.099 37.9011 234.062 37.7677 234.024 37.6272C233.987 37.5009 233.95 37.3394 233.925 37.1428C233.894 36.9462 233.882 36.7004 233.863 36.3915C233.857 36.0825 233.851 35.7034 233.851 35.247V31.6309C233.851 30.5636 233.683 29.8053 233.36 29.3699C233.038 28.9346 232.504 28.7099 231.772 28.7099H230.673V38.0485H227.49V15.1303H232.293C233.95 15.1303 235.154 15.5656 235.892 16.4433C236.631 17.314 237.003 18.634 237.003 20.4035V22.201C237.003 24.5532 236.308 26.1119 234.924 26.8492C235.731 27.2143 236.283 27.8252 236.587 28.6608C236.892 29.4963 237.034 30.5215 237.034 31.7221V35.254C237.034 35.8157 237.059 36.3142 237.096 36.7425C237.134 37.1708 237.233 37.5992 237.382 38.0345H234.136V38.0556ZM230.661 18.4023V25.4449H231.908C232.504 25.4449 232.976 25.2764 233.317 24.9253C233.658 24.5742 233.826 23.9423 233.826 23.0225V20.7615C233.826 19.933 233.695 19.3292 233.435 18.964C233.18 18.5989 232.765 18.4093 232.2 18.4093H230.667V18.4023H230.661ZM241.112 30.4512L237.084 15.1233H240.41L242.837 25.5713L245.263 15.1233H248.304L244.277 30.4512V38.0556H241.093V30.4512H241.112ZM260.474 38.0556C260.437 37.9011 260.4 37.7677 260.362 37.6272C260.325 37.5009 260.288 37.3394 260.263 37.1428C260.232 36.9462 260.22 36.7004 260.201 36.3915C260.195 36.0825 260.189 35.7034 260.189 35.247V31.6309C260.189 30.5636 260.021 29.8053 259.698 29.3699C259.376 28.9346 258.842 28.7099 258.11 28.7099H257.011V38.0485H253.827V15.1303H258.631C260.288 15.1303 261.492 15.5656 262.23 16.4433C262.969 17.321 263.341 18.634 263.341 20.4035V22.201C263.341 24.5532 262.646 26.1119 261.262 26.8492C262.069 27.2143 262.621 27.8252 262.925 28.6608C263.23 29.4963 263.372 30.5215 263.372 31.7221V35.254C263.372 35.8157 263.397 36.3142 263.434 36.7425C263.472 37.1708 263.571 37.5992 263.72 38.0345H260.474V38.0556ZM257.005 18.4023V25.4449H258.252C258.848 25.4449 259.32 25.2764 259.661 24.9253C260.002 24.5742 260.17 23.9423 260.17 23.0225V20.7615C260.17 19.933 260.04 19.3292 259.779 18.964C259.525 18.5989 259.109 18.4093 258.544 18.4093H257.011V18.4023H257.005ZM268.176 15.1233V32.8315C268.176 33.6671 268.325 34.2429 268.622 34.5659C268.927 34.8889 269.318 35.0503 269.826 35.0503C270.323 35.0503 270.726 34.8889 271.03 34.5659C271.334 34.2429 271.477 33.6601 271.477 32.8315V15.1233H274.487V32.5788C274.487 34.4395 274.084 35.8578 273.283 36.8479C272.483 37.8379 271.303 38.3364 269.733 38.3364C268.163 38.3364 266.984 37.8379 266.184 36.8479C265.383 35.8578 264.98 34.4254 264.98 32.5788V15.1233H268.176ZM275.821 20.6352C275.821 18.7745 276.212 17.3491 276.994 16.345C277.776 15.355 278.949 14.8564 280.513 14.8564C282.077 14.8564 283.25 15.355 284.032 16.345C284.814 17.335 285.205 18.7604 285.205 20.6141V21.4988H282.195V20.3894C282.195 19.5609 282.052 18.9781 281.779 18.634C281.5 18.29 281.109 18.1285 280.606 18.1285C280.11 18.1285 279.712 18.297 279.433 18.634C279.154 18.9781 279.017 19.5609 279.017 20.3894C279.017 21.1758 279.166 21.8709 279.477 22.4678C279.787 23.0646 280.172 23.6334 280.637 24.174C281.096 24.7076 281.599 25.2413 282.127 25.7749C282.654 26.3156 283.157 26.8984 283.616 27.5303C284.075 28.1622 284.466 28.8854 284.776 29.6929C285.087 30.5004 285.236 31.4483 285.236 32.5437C285.236 34.4044 284.832 35.8227 284.032 36.8127C283.231 37.8028 282.052 38.3013 280.482 38.3013C278.912 38.3013 277.733 37.8028 276.932 36.8127C276.132 35.8227 275.728 34.3903 275.728 32.5437V30.9708H278.738V32.7824C278.738 33.618 278.887 34.2007 279.185 34.5308C279.489 34.8678 279.88 35.0293 280.389 35.0293C280.885 35.0293 281.289 34.8678 281.593 34.5448C281.897 34.2218 282.04 33.639 282.04 32.8105C282.04 32.0241 281.891 31.3289 281.58 30.7321C281.27 30.1212 280.885 29.5595 280.42 29.0189C279.961 28.4852 279.458 27.9516 278.93 27.418C278.403 26.8843 277.9 26.2945 277.441 25.6626C276.982 25.0306 276.591 24.3074 276.281 23.4999C275.97 22.6925 275.821 21.7375 275.821 20.6422V20.6352ZM286.409 20.6352C286.409 18.7745 286.8 17.3491 287.582 16.345C288.364 15.355 289.536 14.8564 291.1 14.8564C292.664 14.8564 293.837 15.355 294.619 16.345C295.401 17.335 295.792 18.7604 295.792 20.6141V21.4988H292.782V20.3894C292.782 19.5609 292.639 18.9781 292.366 18.634C292.087 18.29 291.69 18.1285 291.193 18.1285C290.697 18.1285 290.3 18.297 290.021 18.634C289.741 18.9781 289.605 19.5609 289.605 20.3894C289.605 21.1758 289.754 21.8709 290.064 22.4678C290.374 23.0646 290.759 23.6334 291.224 24.174C291.684 24.7076 292.186 25.2413 292.714 25.7749C293.241 26.3156 293.744 26.8984 294.203 27.5303C294.663 28.1622 295.053 28.8854 295.364 29.6929C295.674 30.5004 295.823 31.4483 295.823 32.5437C295.823 34.4044 295.42 35.8227 294.619 36.8127C293.819 37.8028 292.639 38.3013 291.069 38.3013C289.499 38.3013 288.32 37.8028 287.52 36.8127C286.719 35.8227 286.316 34.3903 286.316 32.5437V30.9708H289.325V32.7824C289.325 33.618 289.474 34.2007 289.772 34.5308C290.076 34.8678 290.467 35.0293 290.976 35.0293C291.473 35.0293 291.876 34.8678 292.18 34.5448C292.484 34.2218 292.627 33.639 292.627 32.8105C292.627 32.0241 292.478 31.3289 292.168 30.7321C291.857 30.1212 291.473 29.5595 291.007 29.0189C290.548 28.4852 290.045 27.9516 289.518 27.418C288.99 26.8843 288.488 26.2945 288.028 25.6626C287.569 25.0306 287.178 24.3074 286.868 23.4999C286.558 22.6925 286.409 21.7375 286.409 20.6422V20.6352ZM297.126 15.1233H300.31V38.0485H297.126V15.1233ZM312.703 38.0485H309.489L308.936 33.8918H305.026L304.474 38.0485H301.551L304.797 15.1233H309.457L312.703 38.0485ZM305.436 30.7813H308.508L306.975 19.1817L305.436 30.7813Z" fill="white"/>
<path d="M77.3495 53.3209L75.5498 47.4017H76.6545L77.7901 51.6708L78.7645 47.4017H79.7823L78.1439 53.6509C77.9391 54.4162 77.7467 54.9499 77.5481 55.2588C77.3619 55.5678 77.1261 55.7293 76.8655 55.7293C76.611 55.7293 76.3752 55.6941 76.1828 55.6239V54.3881C76.3504 54.4022 76.4683 54.4162 76.549 54.4162C76.791 54.4162 76.9523 54.346 77.0516 54.2126C77.1509 54.0792 77.2378 53.7773 77.3371 53.3209H77.3495ZM82.7487 55.638V47.4087L86.6522 47.4158V55.638H85.6779V48.806H83.7354V55.638H82.7487ZM94.4965 55.652H93.4291L93.0133 53.7913H91.0522L90.6488 55.652H89.6062L91.499 47.4298H92.554L94.4965 55.652ZM92.6968 52.4011L92.0203 49.3467L91.3563 52.4011H92.6968ZM97.4816 55.659V47.4368H98.4559V50.9406C98.6731 50.9055 98.8344 50.8072 98.9151 50.6316C98.9958 50.4631 99.1075 50.0629 99.244 49.431C99.3806 48.792 99.5233 48.3356 99.6722 48.0477C99.8212 47.7598 99.9826 47.5773 100.144 47.5211C100.311 47.4649 100.603 47.4087 101.007 47.3877V48.6094H100.87C100.591 48.6094 100.411 48.6937 100.311 48.8833C100.212 49.0588 100.107 49.4029 100.001 49.9154C99.8957 50.428 99.8088 50.758 99.7281 50.9265C99.6536 51.0951 99.5357 51.2565 99.3682 51.418C99.5854 51.5444 99.7591 51.741 99.8957 52.0219C100.032 52.3027 100.194 52.7592 100.392 53.4192L101.056 55.6731H99.9081L99.3123 53.5456C99.1634 52.9979 99.033 52.6257 98.9275 52.4081C98.822 52.1974 98.6545 52.0851 98.4435 52.0781V55.6731H97.4692V55.659H97.4816ZM103.874 51.6006C103.874 50.6246 103.979 49.8171 104.19 49.1852C104.401 48.5533 104.674 48.0828 105.009 47.7739C105.351 47.4649 105.76 47.3034 106.232 47.3175C106.933 47.3175 107.498 47.6826 107.939 48.4198C108.373 49.1571 108.603 50.2033 108.603 51.5655C108.603 52.9417 108.367 54.016 107.901 54.7884C107.498 55.4695 106.939 55.8065 106.238 55.8065C105.531 55.8065 104.972 55.4695 104.569 54.7884C104.109 54.016 103.874 52.9558 103.874 51.6006ZM104.891 51.5514C104.891 52.4923 105.022 53.2015 105.282 53.679C105.543 54.1564 105.866 54.3881 106.251 54.3881C106.642 54.3881 106.958 54.1564 107.212 53.693C107.467 53.2296 107.597 52.5134 107.597 51.5304C107.597 50.5755 107.479 49.8803 107.231 49.4239C106.983 48.9675 106.66 48.7428 106.257 48.7358C105.86 48.7358 105.524 48.9675 105.282 49.4239C105.028 49.8803 104.904 50.5895 104.904 51.5585H104.891V51.5514ZM113.772 47.4509C114.306 47.4509 114.684 47.5211 114.902 47.6545C115.119 47.7879 115.299 48.0266 115.448 48.3707C115.597 48.7077 115.671 49.0939 115.671 49.5293C115.671 49.9295 115.609 50.2876 115.485 50.6035C115.355 50.9265 115.193 51.1582 114.988 51.3127C115.274 51.4602 115.497 51.6989 115.665 52.043C115.832 52.394 115.907 52.8083 115.907 53.2998C115.907 53.8966 115.801 54.4022 115.59 54.8165C115.379 55.2307 115.137 55.4765 114.852 55.5818C114.66 55.652 114.2 55.6871 113.474 55.6871H111.811V47.4509H113.772ZM112.798 48.8201V50.7229H113.449C113.84 50.7229 114.082 50.7159 114.182 50.6948C114.349 50.6597 114.48 50.5614 114.579 50.3999C114.678 50.2384 114.722 50.0278 114.722 49.7539C114.722 49.5082 114.684 49.3116 114.61 49.1571C114.535 49.0026 114.436 48.9114 114.324 48.8692C114.213 48.8341 113.896 48.8131 113.375 48.8131H112.804L112.798 48.8201ZM112.798 52.0991V54.2969H113.716C114.113 54.2969 114.38 54.2688 114.492 54.2126C114.604 54.1564 114.703 54.0441 114.777 53.8756C114.852 53.7071 114.889 53.4894 114.889 53.2296C114.889 52.9558 114.846 52.7381 114.759 52.5696C114.678 52.4011 114.566 52.2817 114.43 52.2115C114.293 52.1413 114.014 52.1062 113.586 52.1062H112.792H112.798V52.0991ZM118.985 51.6287C118.985 50.6527 119.091 49.8452 119.302 49.2133C119.513 48.5813 119.786 48.1109 120.121 47.802C120.462 47.493 120.872 47.3315 121.343 47.3456C122.045 47.3456 122.609 47.7107 123.05 48.4479C123.484 49.1852 123.714 50.2314 123.714 51.5936C123.714 52.9698 123.478 54.0441 123.013 54.8165C122.609 55.4975 122.051 55.8346 121.35 55.8346C120.642 55.8346 120.084 55.4975 119.68 54.8165C119.221 54.0441 118.985 52.9838 118.985 51.6287ZM120.003 51.5795C120.003 52.5204 120.133 53.2296 120.394 53.7071C120.654 54.1845 120.977 54.4162 121.362 54.4162C121.753 54.4162 122.069 54.1845 122.324 53.7211C122.578 53.2507 122.709 52.5415 122.709 51.5585C122.709 50.6035 122.591 49.9084 122.343 49.452C122.094 48.9956 121.772 48.7709 121.368 48.7709C120.971 48.7709 120.636 49.0026 120.394 49.459C120.139 49.9154 120.015 50.6246 120.015 51.5936L120.003 51.5795ZM126.848 50.421V47.479H127.822V49.6627C127.822 50.1191 127.835 50.4631 127.866 50.6808C127.897 50.8984 127.971 51.088 128.108 51.2425C128.238 51.397 128.449 51.4742 128.722 51.4742C129.138 51.4742 129.473 51.3268 129.721 51.0319V47.486H130.696V55.7082H129.721V52.4011C129.337 52.6889 128.946 52.8364 128.555 52.8364C128.015 52.8364 127.593 52.6257 127.289 52.2044C126.991 51.7761 126.836 51.1934 126.836 50.428V50.421H126.848ZM134.165 55.7082V47.486H135.139V50.7299H137.082V47.486H138.056V55.7082H137.082V52.1132H135.139V55.7082H134.165ZM141.326 51.6638C141.326 50.6878 141.432 49.8803 141.643 49.2484C141.854 48.6164 142.127 48.146 142.462 47.8371C142.797 47.5281 143.213 47.3666 143.685 47.3807C144.386 47.3807 144.951 47.7458 145.391 48.483C145.826 49.2203 146.055 50.2665 146.055 51.6287C146.055 53.0049 145.82 54.0792 145.354 54.8516C144.951 55.5327 144.392 55.8697 143.691 55.8697C142.983 55.8697 142.425 55.5327 142.022 54.8516C141.562 54.0792 141.326 53.0119 141.326 51.6638ZM142.344 51.6146C142.344 52.5555 142.475 53.2647 142.735 53.7422C142.996 54.2196 143.319 54.4513 143.703 54.4513C144.094 54.4513 144.411 54.2196 144.665 53.7562C144.92 53.2858 145.05 52.5625 145.05 51.5936C145.05 50.6387 144.932 49.9435 144.684 49.4871C144.436 49.0307 144.113 48.806 143.71 48.799C143.312 48.799 142.977 49.0307 142.735 49.4871C142.481 49.9435 142.357 50.6527 142.357 51.6217H142.344V51.6146ZM149.276 55.7363V47.5141L152.894 47.5211V48.9043H150.263V50.7159H152.714V52.0991H150.263V54.339H152.994V55.7222L149.289 55.7152L149.276 55.7363ZM159.51 55.7503V47.5281H160.447V53.0049L162.408 47.5281H163.401V55.7503H162.464V50.3929L160.503 55.7503H159.504H159.51ZM172.002 55.7714V47.5422L175.906 47.5492V55.7714H174.932V48.9394H172.989V55.7714H172.002ZM179.356 55.7784V47.5562H180.293V53.033L182.255 47.5562H183.248V55.7784H182.31V50.421L180.349 55.7784H179.35H179.356ZM192.978 54.4092V57.59H192.172V55.7924L186.729 55.7854V47.5632H187.703V54.3952H189.125V47.5632H190.099V54.3952H191.557V47.5632H192.532V54.4092H192.978ZM196.1 55.8065V47.5773L199.718 47.5843V48.9675H197.087V50.7791H199.538V52.1623H197.087V54.4022H199.817V55.7854L196.112 55.7784L196.1 55.8065ZM205.043 47.5913C205.576 47.5913 205.955 47.6615 206.172 47.7949C206.389 47.9283 206.569 48.1671 206.718 48.5111C206.867 48.8482 206.942 49.2343 206.942 49.6697C206.942 50.0699 206.88 50.428 206.756 50.744C206.625 51.067 206.464 51.2987 206.259 51.4531C206.545 51.6006 206.768 51.8393 206.936 52.1834C207.103 52.5345 207.178 52.9487 207.178 53.4402C207.178 54.0371 207.072 54.5426 206.861 54.9569C206.65 55.3712 206.408 55.6169 206.123 55.7222C205.93 55.7924 205.471 55.8276 204.745 55.8276H203.082V47.5913H205.043ZM204.068 48.9605V50.8633H204.72C205.111 50.8633 205.353 50.8563 205.452 50.8353C205.62 50.8001 205.75 50.7018 205.849 50.5404C205.949 50.3789 205.992 50.1682 205.992 49.8944C205.992 49.6486 205.955 49.452 205.881 49.2975C205.806 49.1431 205.707 49.0518 205.595 49.0097C205.483 48.9746 205.167 48.9535 204.646 48.9535H204.075L204.068 48.9605ZM204.068 52.2325V54.4303H204.987C205.384 54.4303 205.651 54.4022 205.763 54.346C205.874 54.2898 205.974 54.1775 206.048 54.009C206.123 53.8405 206.16 53.6228 206.16 53.363C206.16 53.0892 206.116 52.8715 206.029 52.703C205.949 52.5345 205.837 52.4151 205.701 52.3449C205.564 52.2747 205.285 52.2396 204.857 52.2396H204.062H204.068V52.2325ZM210.256 51.7621C210.256 50.7861 210.361 49.9786 210.572 49.3467C210.783 48.7148 211.056 48.2443 211.391 47.9354C211.727 47.6264 212.142 47.4649 212.614 47.479C213.315 47.479 213.88 47.8441 214.321 48.5813C214.755 49.3186 214.985 50.3648 214.985 51.727C214.985 53.1032 214.749 54.1775 214.283 54.9499C213.88 55.631 213.321 55.968 212.62 55.968C211.913 55.968 211.354 55.631 210.951 54.9499C210.485 54.1775 210.256 53.1172 210.256 51.7621ZM211.267 51.7129C211.267 52.6538 211.398 53.363 211.658 53.8405C211.919 54.3179 212.242 54.5496 212.626 54.5496C213.017 54.5496 213.334 54.3179 213.588 53.8545C213.843 53.3841 213.973 52.6609 213.973 51.6919C213.973 50.737 213.855 50.0418 213.607 49.5854C213.359 49.129 213.036 48.9043 212.633 48.8973C212.235 48.8973 211.9 49.129 211.658 49.5854C211.404 50.0418 211.28 50.751 211.28 51.72H211.267V51.7129ZM218.199 55.8416V47.6124L221.817 47.6194V49.0026H219.186V50.8142H221.637V52.1974H219.186V54.4373H221.917V55.8205L218.212 55.8135L218.199 55.8416ZM228.228 51.7902C228.228 50.8142 228.334 50.0067 228.545 49.3748C228.756 48.7428 229.029 48.2724 229.364 47.9635C229.705 47.6545 230.115 47.493 230.586 47.507C231.288 47.507 231.852 47.8722 232.293 48.6094C232.727 49.3467 232.957 50.3929 232.957 51.7551C232.957 53.1313 232.721 54.2056 232.256 54.978C231.852 55.659 231.294 55.9961 230.593 55.9961C229.885 55.9961 229.327 55.659 228.923 54.978C228.464 54.2056 228.228 53.1453 228.228 51.7902ZM229.246 51.741C229.246 52.6819 229.376 53.3911 229.637 53.8685C229.897 54.346 230.22 54.5777 230.605 54.5777C230.996 54.5777 231.312 54.346 231.567 53.8826C231.821 53.4122 231.952 52.703 231.952 51.72C231.952 50.765 231.834 50.0699 231.585 49.6135C231.337 49.1571 231.015 48.9324 230.611 48.9324C230.214 48.9324 229.879 49.1641 229.637 49.6205C229.382 50.0769 229.258 50.7861 229.258 51.7551L229.246 51.741ZM236.209 47.6405L239.858 47.6475V49.0307H237.189V50.9125H238.586C239.113 50.9125 239.523 51.1442 239.827 51.5936C240.131 52.043 240.28 52.6468 240.28 53.3981C240.28 54.0511 240.15 54.6199 239.895 55.1184C239.641 55.6099 239.206 55.8697 238.586 55.8697H236.203H236.209V47.6405ZM237.183 52.3098V54.4794H238.22C238.493 54.4794 238.685 54.4513 238.803 54.4022C238.921 54.353 239.026 54.2337 239.119 54.0511C239.213 53.8756 239.256 53.6509 239.256 53.4122C239.256 52.6749 238.927 52.3098 238.257 52.3098H237.177H237.183ZM243.327 51.8183C243.327 50.8423 243.433 50.0348 243.644 49.4029C243.855 48.7709 244.128 48.3005 244.463 47.9915C244.804 47.6826 245.214 47.5211 245.685 47.5351C246.387 47.5351 246.951 47.9003 247.392 48.6375C247.826 49.3748 248.056 50.421 248.056 51.7832C248.056 53.1594 247.82 54.2337 247.355 55.006C246.951 55.6871 246.393 56.0242 245.692 56.0242C244.984 56.0242 244.426 55.6871 244.022 55.006C243.557 54.2337 243.327 53.1664 243.327 51.8183ZM244.339 51.7621C244.339 52.703 244.469 53.4122 244.73 53.8896C244.99 54.3671 245.313 54.5988 245.698 54.5988C246.089 54.5988 246.405 54.3671 246.66 53.9037C246.914 53.4402 247.044 52.724 247.044 51.741C247.044 50.7861 246.927 50.091 246.678 49.6346C246.43 49.1782 246.107 48.9535 245.704 48.9535C245.307 48.9535 244.972 49.1852 244.73 49.6416C244.475 50.098 244.351 50.8072 244.351 51.7761L244.339 51.7621ZM251.271 55.8907V47.6615H252.859C253.455 47.6615 253.834 47.7037 254.02 47.7809C254.305 47.9073 254.547 48.1811 254.734 48.5954C254.92 49.0097 255.019 49.5503 255.019 50.2033C255.019 50.8001 254.938 51.2917 254.777 51.6989C254.609 52.0991 254.411 52.38 254.169 52.5415C253.927 52.703 253.505 52.7872 252.903 52.7872H252.257V55.8907H251.271ZM252.251 49.0588V51.397H252.797C253.163 51.397 253.412 51.3619 253.548 51.2917C253.685 51.2214 253.79 51.0951 253.871 50.9055C253.952 50.7159 254.001 50.4912 254.001 50.2174C254.001 49.9435 253.958 49.7188 253.871 49.5293C253.778 49.3397 253.679 49.2133 253.548 49.1571C253.418 49.1009 253.151 49.0658 252.735 49.0658H252.251V49.0588ZM259.556 53.5947L257.756 47.6756H258.861L259.996 51.9447L260.971 47.6756H261.988L260.35 53.9247C260.145 54.6901 259.953 55.2237 259.754 55.5327C259.568 55.8416 259.332 56.0031 259.072 56.0031C258.817 56.0031 258.587 55.968 258.389 55.8978V54.662C258.556 54.676 258.674 54.6901 258.755 54.6901C258.997 54.6901 259.158 54.6199 259.258 54.4864C259.357 54.353 259.444 54.0511 259.543 53.5947H259.556ZM269.119 54.5216V57.7023H268.312V55.9048L265.228 55.8978V57.6953H264.421V54.5145H264.824C264.98 53.9388 265.11 53.2436 265.191 52.4291C265.284 51.6146 265.321 50.3929 265.321 48.7779V47.6826L268.691 47.6896V54.5216H269.119ZM266.27 49.0799C266.27 51.5023 266.134 53.3279 265.873 54.5216H267.729V49.0799H266.27ZM272.042 51.8604C272.042 50.8844 272.147 50.0769 272.358 49.445C272.569 48.8131 272.843 48.3426 273.178 48.0337C273.519 47.7247 273.929 47.5632 274.4 47.5773C275.101 47.5773 275.666 47.9424 276.107 48.6796C276.541 49.4169 276.771 50.4631 276.771 51.8253C276.771 53.2015 276.535 54.2758 276.07 55.0482C275.666 55.7293 275.108 56.0663 274.406 56.0663C273.699 56.0663 273.14 55.7293 272.737 55.0482C272.278 54.2758 272.042 53.2085 272.042 51.8604ZM273.06 51.8042C273.06 52.7451 273.19 53.4543 273.451 53.9317C273.711 54.4092 274.034 54.6409 274.419 54.6409C274.81 54.6409 275.126 54.4092 275.381 53.9458C275.635 53.4753 275.765 52.7662 275.765 51.7832C275.765 50.8282 275.648 50.1331 275.399 49.6767C275.151 49.2203 274.828 48.9956 274.425 48.9956C274.028 48.9956 273.693 49.2273 273.451 49.6837C273.196 50.1401 273.072 50.8493 273.072 51.8183L273.06 51.8042ZM281.947 47.7037C282.48 47.7037 282.859 47.7739 283.076 47.9073C283.293 48.0407 283.473 48.2794 283.622 48.6235C283.771 48.9605 283.846 49.3467 283.846 49.782C283.846 50.1823 283.784 50.5403 283.659 50.8563C283.529 51.1793 283.368 51.411 283.163 51.5655C283.448 51.7129 283.672 51.9517 283.839 52.2957C284.007 52.6468 284.081 53.0611 284.081 53.5526C284.081 54.1494 283.976 54.655 283.765 55.0692C283.554 55.4835 283.312 55.7293 283.026 55.8346C282.834 55.9048 282.375 55.9399 281.649 55.9399H279.986V47.7037H281.947ZM280.966 49.0799V50.9827H281.618C282.009 50.9827 282.251 50.9757 282.35 50.9546C282.518 50.9195 282.648 50.8212 282.747 50.6597C282.846 50.4982 282.89 50.2876 282.89 50.0137C282.89 49.768 282.853 49.5714 282.778 49.4169C282.704 49.2624 282.604 49.1712 282.493 49.129C282.381 49.0939 282.064 49.0728 281.543 49.0728H280.972L280.966 49.0799ZM280.966 52.3519V54.5496H281.885C282.282 54.5496 282.549 54.5216 282.66 54.4654C282.772 54.4092 282.871 54.2969 282.946 54.1283C283.02 53.9598 283.057 53.7422 283.057 53.4824C283.057 53.2085 283.014 52.9909 282.927 52.8223C282.846 52.6538 282.735 52.5345 282.598 52.4642C282.462 52.394 282.182 52.3589 281.754 52.3589H280.96H280.966V52.3519ZM291.752 55.9469H290.685L290.269 54.0862H288.308L287.904 55.9469H286.862L288.754 47.7247H289.809L291.752 55.9469ZM289.946 52.703L289.27 49.6486L288.606 52.703H289.946ZM294.718 55.961V47.7317H295.693V50.9757H297.635V47.7317H298.609V55.9539H297.635V52.3589H295.693V55.9539H294.718V55.961ZM302.085 55.968V47.7388H303.022V53.2155L304.983 47.7388H305.976V55.961H305.039V50.6035L303.078 55.961H302.079H302.085V55.968ZM309.433 55.975V47.7528L313.051 47.7598V49.1431H310.419V50.9546H312.871V52.3379H310.419V54.5777H313.15V55.961L309.445 55.9539L309.433 55.975Z" fill="white"/>
<path fill-rule="evenodd" clip-rule="evenodd" d="M24.4231 33.4442V42.7458H21.4818V21.0368H24.4231V30.2317H28.9481V21.0368H31.8894V42.7458H28.9481V33.4442H24.4231ZM42.1091 39.723V42.7497H34.6313V21.0368H37.5725V39.723H42.1091Z" fill="white"/>
<path fill-rule="evenodd" clip-rule="evenodd" d="M35.7114 60.9219C45.9401 55.062 54.4213 46.5807 60.2812 36.352C61.6859 33.9 61.6859 30.8873 60.2812 28.4353C54.4213 18.2066 45.9401 9.72535 35.7114 3.86545C33.2594 2.46074 30.2466 2.46074 27.7947 3.86545C17.566 9.72534 9.08472 18.2066 3.22482 28.4353C1.82012 30.8873 1.82012 33.9 3.22482 36.352C9.08472 46.5807 17.566 55.062 27.7947 60.9219C30.2466 62.3266 33.2594 62.3266 35.7114 60.9219ZM1.34079 27.356C-0.446932 30.4765 -0.446931 34.3108 1.3408 37.4313C7.39261 47.995 16.1517 56.7541 26.7153 62.8059C29.8359 64.5936 33.6702 64.5936 36.7907 62.8059C47.3544 56.7541 56.1134 47.995 62.1653 37.4313C63.953 34.3108 63.953 30.4765 62.1653 27.356C56.1134 16.7923 47.3544 8.03324 36.7907 1.98142C33.6702 0.193694 29.8359 0.193694 26.7153 1.98142C16.1516 8.03324 7.39261 16.7923 1.34079 27.356Z" fill="white"/>
<path fill-rule="evenodd" clip-rule="evenodd" d="M31.7954 52.5205C42.8878 52.5205 51.8799 43.5284 51.8799 32.4361C51.8799 21.3437 42.8878 12.3516 31.7954 12.3516C20.7031 12.3516 11.711 21.3437 11.711 32.4361C11.711 43.5284 20.7031 52.5205 31.7954 52.5205ZM31.7954 54.6918C44.087 54.6918 54.0512 44.7276 54.0512 32.4361C54.0512 20.1445 44.087 10.1803 31.7954 10.1803C19.5039 10.1803 9.53967 20.1445 9.53967 32.4361C9.53967 44.7276 19.5039 54.6918 31.7954 54.6918Z" fill="white"/>
<path fill-rule="evenodd" clip-rule="evenodd" d="M31.7954 49.2636C41.089 49.2636 48.623 41.7297 48.623 32.4361C48.623 23.1425 41.089 15.6085 31.7954 15.6085C22.5019 15.6085 14.9679 23.1425 14.9679 32.4361C14.9679 41.7297 22.5019 49.2636 31.7954 49.2636ZM31.7954 50.3492C41.6886 50.3492 49.7086 42.3292 49.7086 32.4361C49.7086 22.5429 41.6886 14.5229 31.7954 14.5229C21.9023 14.5229 13.8823 22.5429 13.8823 32.4361C13.8823 42.3292 21.9023 50.3492 31.7954 50.3492Z" fill="white"/>
</svg>
